<mxfile modified="2021-09-29T18:04:39.678Z" host="app.diagrams.net" agent="5.0 (X11; Linux x86_64) AppleWebKit/537.36 (KHTML, like Gecko) Chrome/92.0.4515.159 Safari/537.36" etag="2v_xfk3R_wFfy4XwkboN" version="15.3.8" type="github">
  <diagram id="jmpBfyCPIixlEhVCL9JE" name="Page-2">
    <mxGraphModel dx="1221" dy="594" grid="0" gridSize="10" guides="1" tooltips="1" connect="1" arrows="1" fold="1" page="1" pageScale="1" pageWidth="827" pageHeight="1169" background="#ffffff" math="0" shadow="0">
      <root>
        <mxCell id="SjzX8EQSSUuCarC8qpqX-0" />
        <mxCell id="SjzX8EQSSUuCarC8qpqX-1" parent="SjzX8EQSSUuCarC8qpqX-0" />
        <mxCell id="SjzX8EQSSUuCarC8qpqX-3" value="diccionario_articulos_venta" style="shape=table;startSize=30;container=1;collapsible=1;childLayout=tableLayout;fixedRows=1;rowLines=0;fontStyle=1;align=center;resizeLast=1;" vertex="1" parent="SjzX8EQSSUuCarC8qpqX-1">
          <mxGeometry x="621" y="164" width="180" height="230" as="geometry" />
        </mxCell>
        <mxCell id="SjzX8EQSSUuCarC8qpqX-4" value="" style="shape=partialRectangle;collapsible=0;dropTarget=0;pointerEvents=0;fillColor=none;top=0;left=0;bottom=1;right=0;points=[[0,0.5],[1,0.5]];portConstraint=eastwest;" vertex="1" parent="SjzX8EQSSUuCarC8qpqX-3">
          <mxGeometry y="30" width="180" height="30" as="geometry" />
        </mxCell>
        <mxCell id="SjzX8EQSSUuCarC8qpqX-5" value="int " style="shape=partialRectangle;connectable=0;fillColor=none;top=0;left=0;bottom=0;right=0;fontStyle=1;overflow=hidden;" vertex="1" parent="SjzX8EQSSUuCarC8qpqX-4">
          <mxGeometry width="30" height="30" as="geometry">
            <mxRectangle width="30" height="30" as="alternateBounds" />
          </mxGeometry>
        </mxCell>
        <mxCell id="SjzX8EQSSUuCarC8qpqX-6" value="id_articulo" style="shape=partialRectangle;connectable=0;fillColor=none;top=0;left=0;bottom=0;right=0;align=left;spacingLeft=6;fontStyle=1;overflow=hidden;" vertex="1" parent="SjzX8EQSSUuCarC8qpqX-4">
          <mxGeometry x="30" width="150" height="30" as="geometry">
            <mxRectangle width="150" height="30" as="alternateBounds" />
          </mxGeometry>
        </mxCell>
        <mxCell id="SjzX8EQSSUuCarC8qpqX-7" value="" style="shape=partialRectangle;collapsible=0;dropTarget=0;pointerEvents=0;fillColor=none;top=0;left=0;bottom=0;right=0;points=[[0,0.5],[1,0.5]];portConstraint=eastwest;" vertex="1" parent="SjzX8EQSSUuCarC8qpqX-3">
          <mxGeometry y="60" width="180" height="30" as="geometry" />
        </mxCell>
        <mxCell id="SjzX8EQSSUuCarC8qpqX-8" value="str" style="shape=partialRectangle;connectable=0;fillColor=none;top=0;left=0;bottom=0;right=0;editable=1;overflow=hidden;" vertex="1" parent="SjzX8EQSSUuCarC8qpqX-7">
          <mxGeometry width="30" height="30" as="geometry">
            <mxRectangle width="30" height="30" as="alternateBounds" />
          </mxGeometry>
        </mxCell>
        <mxCell id="SjzX8EQSSUuCarC8qpqX-9" value="Description" style="shape=partialRectangle;connectable=0;fillColor=none;top=0;left=0;bottom=0;right=0;align=left;spacingLeft=6;overflow=hidden;" vertex="1" parent="SjzX8EQSSUuCarC8qpqX-7">
          <mxGeometry x="30" width="150" height="30" as="geometry">
            <mxRectangle width="150" height="30" as="alternateBounds" />
          </mxGeometry>
        </mxCell>
        <mxCell id="SjzX8EQSSUuCarC8qpqX-10" value="" style="shape=partialRectangle;collapsible=0;dropTarget=0;pointerEvents=0;fillColor=none;top=0;left=0;bottom=0;right=0;points=[[0,0.5],[1,0.5]];portConstraint=eastwest;" vertex="1" parent="SjzX8EQSSUuCarC8qpqX-3">
          <mxGeometry y="90" width="180" height="20" as="geometry" />
        </mxCell>
        <mxCell id="SjzX8EQSSUuCarC8qpqX-11" value="int" style="shape=partialRectangle;connectable=0;fillColor=none;top=0;left=0;bottom=0;right=0;editable=1;overflow=hidden;" vertex="1" parent="SjzX8EQSSUuCarC8qpqX-10">
          <mxGeometry width="30" height="20" as="geometry">
            <mxRectangle width="30" height="20" as="alternateBounds" />
          </mxGeometry>
        </mxCell>
        <mxCell id="SjzX8EQSSUuCarC8qpqX-12" value="cant" style="shape=partialRectangle;connectable=0;fillColor=none;top=0;left=0;bottom=0;right=0;align=left;spacingLeft=6;overflow=hidden;" vertex="1" parent="SjzX8EQSSUuCarC8qpqX-10">
          <mxGeometry x="30" width="150" height="20" as="geometry">
            <mxRectangle width="150" height="20" as="alternateBounds" />
          </mxGeometry>
        </mxCell>
        <mxCell id="SjzX8EQSSUuCarC8qpqX-16" value="" style="shape=partialRectangle;collapsible=0;dropTarget=0;pointerEvents=0;fillColor=none;top=0;left=0;bottom=0;right=0;points=[[0,0.5],[1,0.5]];portConstraint=eastwest;" vertex="1" parent="SjzX8EQSSUuCarC8qpqX-3">
          <mxGeometry y="110" width="180" height="30" as="geometry" />
        </mxCell>
        <mxCell id="SjzX8EQSSUuCarC8qpqX-17" value="str" style="shape=partialRectangle;connectable=0;fillColor=none;top=0;left=0;bottom=0;right=0;editable=1;overflow=hidden;" vertex="1" parent="SjzX8EQSSUuCarC8qpqX-16">
          <mxGeometry width="30" height="30" as="geometry">
            <mxRectangle width="30" height="30" as="alternateBounds" />
          </mxGeometry>
        </mxCell>
        <mxCell id="SjzX8EQSSUuCarC8qpqX-18" value="proveedor" style="shape=partialRectangle;connectable=0;fillColor=none;top=0;left=0;bottom=0;right=0;align=left;spacingLeft=6;overflow=hidden;" vertex="1" parent="SjzX8EQSSUuCarC8qpqX-16">
          <mxGeometry x="30" width="150" height="30" as="geometry">
            <mxRectangle width="150" height="30" as="alternateBounds" />
          </mxGeometry>
        </mxCell>
        <mxCell id="VZn1Pv0S7O0sd8wRVvLK-1" value="" style="shape=partialRectangle;collapsible=0;dropTarget=0;pointerEvents=0;fillColor=none;top=0;left=0;bottom=0;right=0;points=[[0,0.5],[1,0.5]];portConstraint=eastwest;" vertex="1" parent="SjzX8EQSSUuCarC8qpqX-3">
          <mxGeometry y="140" width="180" height="30" as="geometry" />
        </mxCell>
        <mxCell id="VZn1Pv0S7O0sd8wRVvLK-2" value="int" style="shape=partialRectangle;connectable=0;fillColor=none;top=0;left=0;bottom=0;right=0;editable=1;overflow=hidden;" vertex="1" parent="VZn1Pv0S7O0sd8wRVvLK-1">
          <mxGeometry width="30" height="30" as="geometry">
            <mxRectangle width="30" height="30" as="alternateBounds" />
          </mxGeometry>
        </mxCell>
        <mxCell id="VZn1Pv0S7O0sd8wRVvLK-3" value="id_proveedor" style="shape=partialRectangle;connectable=0;fillColor=none;top=0;left=0;bottom=0;right=0;align=left;spacingLeft=6;overflow=hidden;" vertex="1" parent="VZn1Pv0S7O0sd8wRVvLK-1">
          <mxGeometry x="30" width="150" height="30" as="geometry">
            <mxRectangle width="150" height="30" as="alternateBounds" />
          </mxGeometry>
        </mxCell>
        <mxCell id="SjzX8EQSSUuCarC8qpqX-13" value="" style="shape=partialRectangle;collapsible=0;dropTarget=0;pointerEvents=0;fillColor=none;top=0;left=0;bottom=0;right=0;points=[[0,0.5],[1,0.5]];portConstraint=eastwest;" vertex="1" parent="SjzX8EQSSUuCarC8qpqX-3">
          <mxGeometry y="170" width="180" height="30" as="geometry" />
        </mxCell>
        <mxCell id="SjzX8EQSSUuCarC8qpqX-14" value="int" style="shape=partialRectangle;connectable=0;fillColor=none;top=0;left=0;bottom=0;right=0;editable=1;overflow=hidden;" vertex="1" parent="SjzX8EQSSUuCarC8qpqX-13">
          <mxGeometry width="30" height="30" as="geometry">
            <mxRectangle width="30" height="30" as="alternateBounds" />
          </mxGeometry>
        </mxCell>
        <mxCell id="SjzX8EQSSUuCarC8qpqX-15" value="limite_reposicion" style="shape=partialRectangle;connectable=0;fillColor=none;top=0;left=0;bottom=0;right=0;align=left;spacingLeft=6;overflow=hidden;" vertex="1" parent="SjzX8EQSSUuCarC8qpqX-13">
          <mxGeometry x="30" width="150" height="30" as="geometry">
            <mxRectangle width="150" height="30" as="alternateBounds" />
          </mxGeometry>
        </mxCell>
        <mxCell id="VZn1Pv0S7O0sd8wRVvLK-4" value="" style="shape=partialRectangle;collapsible=0;dropTarget=0;pointerEvents=0;fillColor=none;top=0;left=0;bottom=0;right=0;points=[[0,0.5],[1,0.5]];portConstraint=eastwest;" vertex="1" parent="SjzX8EQSSUuCarC8qpqX-3">
          <mxGeometry y="200" width="180" height="30" as="geometry" />
        </mxCell>
        <mxCell id="VZn1Pv0S7O0sd8wRVvLK-5" value="float" style="shape=partialRectangle;connectable=0;fillColor=none;top=0;left=0;bottom=0;right=0;editable=1;overflow=hidden;" vertex="1" parent="VZn1Pv0S7O0sd8wRVvLK-4">
          <mxGeometry width="30" height="30" as="geometry">
            <mxRectangle width="30" height="30" as="alternateBounds" />
          </mxGeometry>
        </mxCell>
        <mxCell id="VZn1Pv0S7O0sd8wRVvLK-6" value="Precio_venta" style="shape=partialRectangle;connectable=0;fillColor=none;top=0;left=0;bottom=0;right=0;align=left;spacingLeft=6;overflow=hidden;" vertex="1" parent="VZn1Pv0S7O0sd8wRVvLK-4">
          <mxGeometry x="30" width="150" height="30" as="geometry">
            <mxRectangle width="150" height="30" as="alternateBounds" />
          </mxGeometry>
        </mxCell>
        <mxCell id="VZn1Pv0S7O0sd8wRVvLK-7" value="diccionario_proveedor" style="shape=table;startSize=30;container=1;collapsible=1;childLayout=tableLayout;fixedRows=1;rowLines=0;fontStyle=1;align=center;resizeLast=1;" vertex="1" parent="SjzX8EQSSUuCarC8qpqX-1">
          <mxGeometry x="15" y="602" width="180" height="120" as="geometry" />
        </mxCell>
        <mxCell id="VZn1Pv0S7O0sd8wRVvLK-8" value="" style="shape=partialRectangle;collapsible=0;dropTarget=0;pointerEvents=0;fillColor=none;top=0;left=0;bottom=1;right=0;points=[[0,0.5],[1,0.5]];portConstraint=eastwest;" vertex="1" parent="VZn1Pv0S7O0sd8wRVvLK-7">
          <mxGeometry y="30" width="180" height="30" as="geometry" />
        </mxCell>
        <mxCell id="VZn1Pv0S7O0sd8wRVvLK-9" value="int " style="shape=partialRectangle;connectable=0;fillColor=none;top=0;left=0;bottom=0;right=0;fontStyle=1;overflow=hidden;" vertex="1" parent="VZn1Pv0S7O0sd8wRVvLK-8">
          <mxGeometry width="30" height="30" as="geometry">
            <mxRectangle width="30" height="30" as="alternateBounds" />
          </mxGeometry>
        </mxCell>
        <mxCell id="VZn1Pv0S7O0sd8wRVvLK-10" value="id_proveedor" style="shape=partialRectangle;connectable=0;fillColor=none;top=0;left=0;bottom=0;right=0;align=left;spacingLeft=6;fontStyle=1;overflow=hidden;" vertex="1" parent="VZn1Pv0S7O0sd8wRVvLK-8">
          <mxGeometry x="30" width="150" height="30" as="geometry">
            <mxRectangle width="150" height="30" as="alternateBounds" />
          </mxGeometry>
        </mxCell>
        <mxCell id="VZn1Pv0S7O0sd8wRVvLK-11" value="" style="shape=partialRectangle;collapsible=0;dropTarget=0;pointerEvents=0;fillColor=none;top=0;left=0;bottom=0;right=0;points=[[0,0.5],[1,0.5]];portConstraint=eastwest;" vertex="1" parent="VZn1Pv0S7O0sd8wRVvLK-7">
          <mxGeometry y="60" width="180" height="30" as="geometry" />
        </mxCell>
        <mxCell id="VZn1Pv0S7O0sd8wRVvLK-12" value="str" style="shape=partialRectangle;connectable=0;fillColor=none;top=0;left=0;bottom=0;right=0;editable=1;overflow=hidden;" vertex="1" parent="VZn1Pv0S7O0sd8wRVvLK-11">
          <mxGeometry width="30" height="30" as="geometry">
            <mxRectangle width="30" height="30" as="alternateBounds" />
          </mxGeometry>
        </mxCell>
        <mxCell id="VZn1Pv0S7O0sd8wRVvLK-13" value="razon_social" style="shape=partialRectangle;connectable=0;fillColor=none;top=0;left=0;bottom=0;right=0;align=left;spacingLeft=6;overflow=hidden;" vertex="1" parent="VZn1Pv0S7O0sd8wRVvLK-11">
          <mxGeometry x="30" width="150" height="30" as="geometry">
            <mxRectangle width="150" height="30" as="alternateBounds" />
          </mxGeometry>
        </mxCell>
        <mxCell id="VZn1Pv0S7O0sd8wRVvLK-14" value="" style="shape=partialRectangle;collapsible=0;dropTarget=0;pointerEvents=0;fillColor=none;top=0;left=0;bottom=0;right=0;points=[[0,0.5],[1,0.5]];portConstraint=eastwest;" vertex="1" parent="VZn1Pv0S7O0sd8wRVvLK-7">
          <mxGeometry y="90" width="180" height="30" as="geometry" />
        </mxCell>
        <mxCell id="VZn1Pv0S7O0sd8wRVvLK-15" value="int" style="shape=partialRectangle;connectable=0;fillColor=none;top=0;left=0;bottom=0;right=0;editable=1;overflow=hidden;" vertex="1" parent="VZn1Pv0S7O0sd8wRVvLK-14">
          <mxGeometry width="30" height="30" as="geometry">
            <mxRectangle width="30" height="30" as="alternateBounds" />
          </mxGeometry>
        </mxCell>
        <mxCell id="VZn1Pv0S7O0sd8wRVvLK-16" value="telefono" style="shape=partialRectangle;connectable=0;fillColor=none;top=0;left=0;bottom=0;right=0;align=left;spacingLeft=6;overflow=hidden;" vertex="1" parent="VZn1Pv0S7O0sd8wRVvLK-14">
          <mxGeometry x="30" width="150" height="30" as="geometry">
            <mxRectangle width="150" height="30" as="alternateBounds" />
          </mxGeometry>
        </mxCell>
        <mxCell id="VZn1Pv0S7O0sd8wRVvLK-30" value="diccionario_articulos_stock" style="shape=table;startSize=30;container=1;collapsible=1;childLayout=tableLayout;fixedRows=1;rowLines=0;fontStyle=1;align=center;resizeLast=1;" vertex="1" parent="SjzX8EQSSUuCarC8qpqX-1">
          <mxGeometry x="530" y="530" width="180" height="198.05882352941217" as="geometry" />
        </mxCell>
        <mxCell id="VZn1Pv0S7O0sd8wRVvLK-31" value="" style="shape=partialRectangle;collapsible=0;dropTarget=0;pointerEvents=0;fillColor=none;top=0;left=0;bottom=1;right=0;points=[[0,0.5],[1,0.5]];portConstraint=eastwest;" vertex="1" parent="VZn1Pv0S7O0sd8wRVvLK-30">
          <mxGeometry y="30" width="180" height="30" as="geometry" />
        </mxCell>
        <mxCell id="VZn1Pv0S7O0sd8wRVvLK-32" value="int " style="shape=partialRectangle;connectable=0;fillColor=none;top=0;left=0;bottom=0;right=0;fontStyle=1;overflow=hidden;" vertex="1" parent="VZn1Pv0S7O0sd8wRVvLK-31">
          <mxGeometry width="30" height="30" as="geometry">
            <mxRectangle width="30" height="30" as="alternateBounds" />
          </mxGeometry>
        </mxCell>
        <mxCell id="VZn1Pv0S7O0sd8wRVvLK-33" value="id_articulo" style="shape=partialRectangle;connectable=0;fillColor=none;top=0;left=0;bottom=0;right=0;align=left;spacingLeft=6;fontStyle=1;overflow=hidden;" vertex="1" parent="VZn1Pv0S7O0sd8wRVvLK-31">
          <mxGeometry x="30" width="150" height="30" as="geometry">
            <mxRectangle width="150" height="30" as="alternateBounds" />
          </mxGeometry>
        </mxCell>
        <mxCell id="VZn1Pv0S7O0sd8wRVvLK-34" value="" style="shape=partialRectangle;collapsible=0;dropTarget=0;pointerEvents=0;fillColor=none;top=0;left=0;bottom=0;right=0;points=[[0,0.5],[1,0.5]];portConstraint=eastwest;" vertex="1" parent="VZn1Pv0S7O0sd8wRVvLK-30">
          <mxGeometry y="60" width="180" height="30" as="geometry" />
        </mxCell>
        <mxCell id="VZn1Pv0S7O0sd8wRVvLK-35" value="str" style="shape=partialRectangle;connectable=0;fillColor=none;top=0;left=0;bottom=0;right=0;editable=1;overflow=hidden;" vertex="1" parent="VZn1Pv0S7O0sd8wRVvLK-34">
          <mxGeometry width="30" height="30" as="geometry">
            <mxRectangle width="30" height="30" as="alternateBounds" />
          </mxGeometry>
        </mxCell>
        <mxCell id="VZn1Pv0S7O0sd8wRVvLK-36" value="nombre" style="shape=partialRectangle;connectable=0;fillColor=none;top=0;left=0;bottom=0;right=0;align=left;spacingLeft=6;overflow=hidden;" vertex="1" parent="VZn1Pv0S7O0sd8wRVvLK-34">
          <mxGeometry x="30" width="150" height="30" as="geometry">
            <mxRectangle width="150" height="30" as="alternateBounds" />
          </mxGeometry>
        </mxCell>
        <mxCell id="VZn1Pv0S7O0sd8wRVvLK-37" value="" style="shape=partialRectangle;collapsible=0;dropTarget=0;pointerEvents=0;fillColor=none;top=0;left=0;bottom=0;right=0;points=[[0,0.5],[1,0.5]];portConstraint=eastwest;" vertex="1" parent="VZn1Pv0S7O0sd8wRVvLK-30">
          <mxGeometry y="90" width="180" height="20" as="geometry" />
        </mxCell>
        <mxCell id="VZn1Pv0S7O0sd8wRVvLK-38" value="int" style="shape=partialRectangle;connectable=0;fillColor=none;top=0;left=0;bottom=0;right=0;editable=1;overflow=hidden;" vertex="1" parent="VZn1Pv0S7O0sd8wRVvLK-37">
          <mxGeometry width="30" height="20" as="geometry">
            <mxRectangle width="30" height="20" as="alternateBounds" />
          </mxGeometry>
        </mxCell>
        <mxCell id="VZn1Pv0S7O0sd8wRVvLK-39" value="cant" style="shape=partialRectangle;connectable=0;fillColor=none;top=0;left=0;bottom=0;right=0;align=left;spacingLeft=6;overflow=hidden;" vertex="1" parent="VZn1Pv0S7O0sd8wRVvLK-37">
          <mxGeometry x="30" width="150" height="20" as="geometry">
            <mxRectangle width="150" height="20" as="alternateBounds" />
          </mxGeometry>
        </mxCell>
        <mxCell id="VZn1Pv0S7O0sd8wRVvLK-46" value="" style="shape=partialRectangle;collapsible=0;dropTarget=0;pointerEvents=0;fillColor=none;top=0;left=0;bottom=0;right=0;points=[[0,0.5],[1,0.5]];portConstraint=eastwest;" vertex="1" parent="VZn1Pv0S7O0sd8wRVvLK-30">
          <mxGeometry y="110" width="180" height="28" as="geometry" />
        </mxCell>
        <mxCell id="VZn1Pv0S7O0sd8wRVvLK-47" value="int" style="shape=partialRectangle;connectable=0;fillColor=none;top=0;left=0;bottom=0;right=0;editable=1;overflow=hidden;" vertex="1" parent="VZn1Pv0S7O0sd8wRVvLK-46">
          <mxGeometry width="30" height="28" as="geometry">
            <mxRectangle width="30" height="28" as="alternateBounds" />
          </mxGeometry>
        </mxCell>
        <mxCell id="VZn1Pv0S7O0sd8wRVvLK-48" value="limite_reposicion" style="shape=partialRectangle;connectable=0;fillColor=none;top=0;left=0;bottom=0;right=0;align=left;spacingLeft=6;overflow=hidden;" vertex="1" parent="VZn1Pv0S7O0sd8wRVvLK-46">
          <mxGeometry x="30" width="150" height="28" as="geometry">
            <mxRectangle width="150" height="28" as="alternateBounds" />
          </mxGeometry>
        </mxCell>
        <mxCell id="VZn1Pv0S7O0sd8wRVvLK-49" value="" style="shape=partialRectangle;collapsible=0;dropTarget=0;pointerEvents=0;fillColor=none;top=0;left=0;bottom=0;right=0;points=[[0,0.5],[1,0.5]];portConstraint=eastwest;" vertex="1" parent="VZn1Pv0S7O0sd8wRVvLK-30">
          <mxGeometry y="138" width="180" height="30" as="geometry" />
        </mxCell>
        <mxCell id="VZn1Pv0S7O0sd8wRVvLK-50" value="float" style="shape=partialRectangle;connectable=0;fillColor=none;top=0;left=0;bottom=0;right=0;editable=1;overflow=hidden;" vertex="1" parent="VZn1Pv0S7O0sd8wRVvLK-49">
          <mxGeometry width="30" height="30" as="geometry">
            <mxRectangle width="30" height="30" as="alternateBounds" />
          </mxGeometry>
        </mxCell>
        <mxCell id="VZn1Pv0S7O0sd8wRVvLK-51" value="precio_compra" style="shape=partialRectangle;connectable=0;fillColor=none;top=0;left=0;bottom=0;right=0;align=left;spacingLeft=6;overflow=hidden;" vertex="1" parent="VZn1Pv0S7O0sd8wRVvLK-49">
          <mxGeometry x="30" width="150" height="30" as="geometry">
            <mxRectangle width="150" height="30" as="alternateBounds" />
          </mxGeometry>
        </mxCell>
        <mxCell id="Wqohh2sKu4eYREmgGrFw-47" value="" style="shape=partialRectangle;collapsible=0;dropTarget=0;pointerEvents=0;fillColor=none;top=0;left=0;bottom=0;right=0;points=[[0,0.5],[1,0.5]];portConstraint=eastwest;" vertex="1" parent="VZn1Pv0S7O0sd8wRVvLK-30">
          <mxGeometry y="168" width="180" height="30" as="geometry" />
        </mxCell>
        <mxCell id="Wqohh2sKu4eYREmgGrFw-48" value="int" style="shape=partialRectangle;connectable=0;fillColor=none;top=0;left=0;bottom=0;right=0;editable=1;overflow=hidden;" vertex="1" parent="Wqohh2sKu4eYREmgGrFw-47">
          <mxGeometry width="30" height="30" as="geometry">
            <mxRectangle width="30" height="30" as="alternateBounds" />
          </mxGeometry>
        </mxCell>
        <mxCell id="Wqohh2sKu4eYREmgGrFw-49" value="id_proveedor" style="shape=partialRectangle;connectable=0;fillColor=none;top=0;left=0;bottom=0;right=0;align=left;spacingLeft=6;overflow=hidden;" vertex="1" parent="Wqohh2sKu4eYREmgGrFw-47">
          <mxGeometry x="30" width="150" height="30" as="geometry">
            <mxRectangle width="150" height="30" as="alternateBounds" />
          </mxGeometry>
        </mxCell>
        <mxCell id="Wqohh2sKu4eYREmgGrFw-0" value="l" style="text;html=1;align=center;verticalAlign=middle;resizable=0;points=[];autosize=1;strokeColor=none;fillColor=none;" vertex="1" parent="SjzX8EQSSUuCarC8qpqX-1">
          <mxGeometry x="107" y="437" width="12" height="18" as="geometry" />
        </mxCell>
        <mxCell id="Wqohh2sKu4eYREmgGrFw-1" value="lista_proveedores" style="shape=table;startSize=30;container=1;collapsible=1;childLayout=tableLayout;fixedRows=1;rowLines=0;fontStyle=1;align=center;resizeLast=1;" vertex="1" parent="SjzX8EQSSUuCarC8qpqX-1">
          <mxGeometry x="44" y="454.25" width="180" height="75.75003051757812" as="geometry" />
        </mxCell>
        <mxCell id="Wqohh2sKu4eYREmgGrFw-2" value="" style="shape=partialRectangle;collapsible=0;dropTarget=0;pointerEvents=0;fillColor=none;top=0;left=0;bottom=1;right=0;points=[[0,0.5],[1,0.5]];portConstraint=eastwest;" vertex="1" parent="Wqohh2sKu4eYREmgGrFw-1">
          <mxGeometry y="30" width="180" height="36" as="geometry" />
        </mxCell>
        <mxCell id="Wqohh2sKu4eYREmgGrFw-3" value="dic" style="shape=partialRectangle;connectable=0;fillColor=none;top=0;left=0;bottom=0;right=0;fontStyle=1;overflow=hidden;" vertex="1" parent="Wqohh2sKu4eYREmgGrFw-2">
          <mxGeometry width="30" height="36" as="geometry">
            <mxRectangle width="30" height="36" as="alternateBounds" />
          </mxGeometry>
        </mxCell>
        <mxCell id="Wqohh2sKu4eYREmgGrFw-4" value="diccionario_proveedor" style="shape=partialRectangle;connectable=0;fillColor=none;top=0;left=0;bottom=0;right=0;align=left;spacingLeft=6;fontStyle=1;overflow=hidden;" vertex="1" parent="Wqohh2sKu4eYREmgGrFw-2">
          <mxGeometry x="30" width="150" height="36" as="geometry">
            <mxRectangle width="150" height="36" as="alternateBounds" />
          </mxGeometry>
        </mxCell>
        <mxCell id="Wqohh2sKu4eYREmgGrFw-14" style="edgeStyle=orthogonalEdgeStyle;rounded=0;orthogonalLoop=1;jettySize=auto;html=1;startArrow=open;startFill=0;endArrow=open;endFill=0;strokeWidth=2;strokeColor=#808080;entryX=0.5;entryY=0;entryDx=0;entryDy=0;curved=1;exitX=1;exitY=0.5;exitDx=0;exitDy=0;" edge="1" parent="SjzX8EQSSUuCarC8qpqX-1" source="Wqohh2sKu4eYREmgGrFw-2" target="VZn1Pv0S7O0sd8wRVvLK-7">
          <mxGeometry relative="1" as="geometry">
            <mxPoint x="155" y="547" as="sourcePoint" />
            <mxPoint x="192" y="533" as="targetPoint" />
          </mxGeometry>
        </mxCell>
        <mxCell id="Wqohh2sKu4eYREmgGrFw-15" value="lista_articulos_venta" style="shape=table;startSize=30;container=1;collapsible=1;childLayout=tableLayout;fixedRows=1;rowLines=0;fontStyle=1;align=center;resizeLast=1;" vertex="1" parent="SjzX8EQSSUuCarC8qpqX-1">
          <mxGeometry x="296" y="48" width="219" height="75.75" as="geometry" />
        </mxCell>
        <mxCell id="Wqohh2sKu4eYREmgGrFw-16" value="" style="shape=partialRectangle;collapsible=0;dropTarget=0;pointerEvents=0;fillColor=none;top=0;left=0;bottom=1;right=0;points=[[0,0.5],[1,0.5]];portConstraint=eastwest;" vertex="1" parent="Wqohh2sKu4eYREmgGrFw-15">
          <mxGeometry y="30" width="219" height="36" as="geometry" />
        </mxCell>
        <mxCell id="Wqohh2sKu4eYREmgGrFw-17" value="dic" style="shape=partialRectangle;connectable=0;fillColor=none;top=0;left=0;bottom=0;right=0;fontStyle=1;overflow=hidden;" vertex="1" parent="Wqohh2sKu4eYREmgGrFw-16">
          <mxGeometry width="30" height="36" as="geometry">
            <mxRectangle width="30" height="36" as="alternateBounds" />
          </mxGeometry>
        </mxCell>
        <mxCell id="Wqohh2sKu4eYREmgGrFw-18" value="diccionario_articulos_venta" style="shape=partialRectangle;connectable=0;fillColor=none;top=0;left=0;bottom=0;right=0;align=left;spacingLeft=6;fontStyle=1;overflow=hidden;" vertex="1" parent="Wqohh2sKu4eYREmgGrFw-16">
          <mxGeometry x="30" width="189" height="36" as="geometry">
            <mxRectangle width="189" height="36" as="alternateBounds" />
          </mxGeometry>
        </mxCell>
        <mxCell id="Wqohh2sKu4eYREmgGrFw-19" style="edgeStyle=orthogonalEdgeStyle;rounded=0;orthogonalLoop=1;jettySize=auto;html=1;startArrow=open;startFill=0;endArrow=open;endFill=0;strokeWidth=2;strokeColor=#808080;exitX=1;exitY=0.5;exitDx=0;exitDy=0;curved=1;entryX=0.75;entryY=0;entryDx=0;entryDy=0;" edge="1" parent="SjzX8EQSSUuCarC8qpqX-1" source="Wqohh2sKu4eYREmgGrFw-16" target="SjzX8EQSSUuCarC8qpqX-3">
          <mxGeometry relative="1" as="geometry">
            <mxPoint x="363" y="280" as="sourcePoint" />
            <mxPoint x="519" y="246" as="targetPoint" />
          </mxGeometry>
        </mxCell>
        <mxCell id="Wqohh2sKu4eYREmgGrFw-20" value="lista_articulos_stock" style="shape=table;startSize=30;container=1;collapsible=1;childLayout=tableLayout;fixedRows=1;rowLines=0;fontStyle=1;align=center;resizeLast=1;" vertex="1" parent="SjzX8EQSSUuCarC8qpqX-1">
          <mxGeometry x="299" y="356" width="208.3499755859375" height="75.75003051757812" as="geometry" />
        </mxCell>
        <mxCell id="Wqohh2sKu4eYREmgGrFw-21" value="" style="shape=partialRectangle;collapsible=0;dropTarget=0;pointerEvents=0;fillColor=none;top=0;left=0;bottom=1;right=0;points=[[0,0.5],[1,0.5]];portConstraint=eastwest;" vertex="1" parent="Wqohh2sKu4eYREmgGrFw-20">
          <mxGeometry y="30" width="208.3499755859375" height="36" as="geometry" />
        </mxCell>
        <mxCell id="Wqohh2sKu4eYREmgGrFw-22" value="dic" style="shape=partialRectangle;connectable=0;fillColor=none;top=0;left=0;bottom=0;right=0;fontStyle=1;overflow=hidden;" vertex="1" parent="Wqohh2sKu4eYREmgGrFw-21">
          <mxGeometry width="30" height="36" as="geometry">
            <mxRectangle width="30" height="36" as="alternateBounds" />
          </mxGeometry>
        </mxCell>
        <mxCell id="Wqohh2sKu4eYREmgGrFw-23" value="diccionario_articulos_stock" style="shape=partialRectangle;connectable=0;fillColor=none;top=0;left=0;bottom=0;right=0;align=left;spacingLeft=6;fontStyle=1;overflow=hidden;" vertex="1" parent="Wqohh2sKu4eYREmgGrFw-21">
          <mxGeometry x="30" width="178.3499755859375" height="36" as="geometry">
            <mxRectangle width="178.3499755859375" height="36" as="alternateBounds" />
          </mxGeometry>
        </mxCell>
        <mxCell id="Wqohh2sKu4eYREmgGrFw-24" style="edgeStyle=orthogonalEdgeStyle;rounded=0;orthogonalLoop=1;jettySize=auto;html=1;startArrow=open;startFill=0;endArrow=open;endFill=0;strokeWidth=2;strokeColor=#808080;entryX=0.462;entryY=0.007;entryDx=0;entryDy=0;curved=1;exitX=1;exitY=0.5;exitDx=0;exitDy=0;entryPerimeter=0;" edge="1" parent="SjzX8EQSSUuCarC8qpqX-1" source="Wqohh2sKu4eYREmgGrFw-21" target="VZn1Pv0S7O0sd8wRVvLK-30">
          <mxGeometry relative="1" as="geometry">
            <mxPoint x="400" y="479" as="sourcePoint" />
            <mxPoint x="461" y="578.75" as="targetPoint" />
          </mxGeometry>
        </mxCell>
        <mxCell id="Wqohh2sKu4eYREmgGrFw-25" value="SQL DB" style="strokeWidth=2;html=1;shape=mxgraph.flowchart.database;whiteSpace=wrap;" vertex="1" parent="SjzX8EQSSUuCarC8qpqX-1">
          <mxGeometry x="87" y="203" width="113" height="99" as="geometry" />
        </mxCell>
        <mxCell id="Wqohh2sKu4eYREmgGrFw-26" style="edgeStyle=orthogonalEdgeStyle;rounded=0;orthogonalLoop=1;jettySize=auto;html=1;startArrow=open;startFill=0;endArrow=open;endFill=0;strokeWidth=2;strokeColor=#808080;entryX=-0.023;entryY=0.622;entryDx=0;entryDy=0;curved=1;entryPerimeter=0;" edge="1" parent="SjzX8EQSSUuCarC8qpqX-1" target="Wqohh2sKu4eYREmgGrFw-25">
          <mxGeometry relative="1" as="geometry">
            <mxPoint x="47" y="500" as="sourcePoint" />
            <mxPoint x="115" y="612" as="targetPoint" />
            <Array as="points">
              <mxPoint x="17" y="500" />
              <mxPoint x="17" y="265" />
            </Array>
          </mxGeometry>
        </mxCell>
        <mxCell id="Wqohh2sKu4eYREmgGrFw-50" style="edgeStyle=orthogonalEdgeStyle;rounded=0;orthogonalLoop=1;jettySize=auto;html=1;startArrow=open;startFill=0;endArrow=open;endFill=0;strokeWidth=2;strokeColor=#808080;entryX=0;entryY=0.5;entryDx=0;entryDy=0;curved=1;" edge="1" parent="SjzX8EQSSUuCarC8qpqX-1" target="Wqohh2sKu4eYREmgGrFw-21">
          <mxGeometry relative="1" as="geometry">
            <mxPoint x="202" y="256" as="sourcePoint" />
            <mxPoint x="623.1599999999999" y="541.3864117647058" as="targetPoint" />
            <Array as="points">
              <mxPoint x="260" y="256" />
              <mxPoint x="260" y="404" />
            </Array>
          </mxGeometry>
        </mxCell>
      </root>
    </mxGraphModel>
  </diagram>
</mxfile>
